HIERARCHY
ROOT Pelvis
{
	OFFSET 0.000000 0.000000 0.000000
	CHANNELS 6 Xposition Yposition Zposition Xrotation Yrotation Zrotation
	JOINT LeftUpLeg_virtual
	{
		OFFSET 0.000000 0.000000 0.000000
		CHANNELS 3 Xrotation Yrotation Zrotation
		JOINT LeftUpLeg
		{
			OFFSET 18.735201 -5.666702 -4.541200
			CHANNELS 3 Xrotation Yrotation Zrotation
			JOINT LeftLeg
			{
				OFFSET -0.021200 -31.938179 0.493100
				CHANNELS 3 Xrotation Yrotation Zrotation
				JOINT LeftFoot
				{
					OFFSET 0.021200 -31.938179 -4.336299
					CHANNELS 3 Xrotation Yrotation Zrotation
					JOINT LeftToeBase
					{
						OFFSET 0.943001 -26.722000 15.023500
						CHANNELS 3 Xrotation Yrotation Zrotation
						End Site
						{
							OFFSET 0 0 0
						}
					}
				}
			}
		}
	}
	JOINT RightUpLeg_virtual
	{
		OFFSET 0.000000 0.000000 0.000000
		CHANNELS 3 Xrotation Yrotation Zrotation
		JOINT RightUpLeg
		{
			OFFSET -18.735201 -5.666702 -4.541200
			CHANNELS 3 Xrotation Yrotation Zrotation
			JOINT RightLeg
			{
				OFFSET 0.018946 -31.938133 0.493100
				CHANNELS 3 Xrotation Yrotation Zrotation
				JOINT RightFoot
				{
					OFFSET -0.018946 -31.938126 -4.336299
					CHANNELS 3 Xrotation Yrotation Zrotation
					JOINT RightToeBase
					{
						OFFSET -0.943001 -26.722004 15.023500
						CHANNELS 3 Xrotation Yrotation Zrotation
						End Site
						{
							OFFSET 0 0 0
						}
					}
				}
			}
		}
	}
	JOINT Hips_virtual
	{
		OFFSET 0.000000 0.000000 0.000000
		CHANNELS 3 Xrotation Yrotation Zrotation
		JOINT Hips
		{
			OFFSET -0.000000 -0.000000 -0.000000
			CHANNELS 3 Xrotation Yrotation Zrotation
			JOINT Spine
			{
				OFFSET 0.000000 10.199997 -0.299500
				CHANNELS 3 Xrotation Yrotation Zrotation
				JOINT Spine1
				{
					OFFSET 0.000000 11.900002 -1.516600
					CHANNELS 3 Xrotation Yrotation Zrotation
					JOINT Spine2
					{
						OFFSET 0.000000 13.600006 -2.842500
						CHANNELS 3 Xrotation Yrotation Zrotation
						JOINT Neck_virtual
						{
							OFFSET 0.000000 0.000000 0.000000
							CHANNELS 3 Xrotation Yrotation Zrotation
							JOINT Neck
							{
								OFFSET 0.000000 9.624100 -2.890100
								CHANNELS 3 Xrotation Yrotation Zrotation
								JOINT Head
								{
									OFFSET 0.000000 14.068802 -1.351900
									CHANNELS 3 Xrotation Yrotation Zrotation
									End Site
									{
										OFFSET 0 0 0
									}
								}
							}
						}
						JOINT LeftShoulder_virtual
						{
							OFFSET 0.000000 0.000000 0.000000
							CHANNELS 3 Xrotation Yrotation Zrotation
							JOINT LeftShoulder
							{
								OFFSET 15.263000 10.923401 -0.547700
								CHANNELS 3 Xrotation Yrotation Zrotation
								JOINT LeftArm
								{
									OFFSET 25.438599 -2.830597 -13.032500
									CHANNELS 3 Xrotation Yrotation Zrotation
									JOINT LeftForeArm
									{
										OFFSET 29.960503 0.000000 0.000000
										CHANNELS 3 Xrotation Yrotation Zrotation
										JOINT LeftHand
										{
											OFFSET 27.849251 0.000000 0.000000
											CHANNELS 3 Xrotation Yrotation Zrotation
											End Site
											{
												OFFSET 0 0 0
											}
										}
									}
								}
							}
						}
						JOINT RightShoulder_virtual
						{
							OFFSET 0.000000 0.000000 0.000000
							CHANNELS 3 Xrotation Yrotation Zrotation
							JOINT RightShoulder
							{
								OFFSET -15.263000 10.923401 -0.547700
								CHANNELS 3 Xrotation Yrotation Zrotation
								JOINT RightArm
								{
									OFFSET -25.438599 -2.830597 -13.032500
									CHANNELS 3 Xrotation Yrotation Zrotation
									JOINT RightForeArm
									{
										OFFSET -29.960503 0.000000 0.000000
										CHANNELS 3 Xrotation Yrotation Zrotation
										JOINT RightHand
										{
											OFFSET -27.849251 0.000000 0.000000
											CHANNELS 3 Xrotation Yrotation Zrotation
											End Site
											{
												OFFSET 0 0 0
											}
										}
									}
								}
							}
						}
					}
				}
			}
		}
	}
}
MOTION
Frames: 7
Frame Time: 0.03333333
-4.117323 127.851532 312.104797 0.000000 0.000000 0.000000 3.366171 -39.520062 13.662445 -90.723422 -16.886365 11.437741 95.831338 20.124828 5.189348 -3.772191 4.361188 15.865122 0.000000 0.000000 0.000000 2.561897 -40.388818 12.633173 -104.817094 -20.094656 -12.213337 89.789079 16.471158 9.265243 50.149954 12.784449 0.238246 0.000000 0.000000 0.000000 3.289284 -41.037020 14.270378 -2.220365 4.345768 -0.502662 36.326597 1.933136 -24.927726 14.953658 3.713661 -0.841198 0.000000 0.000000 0.000000 15.135814 2.685470 -0.402042 -3.938014 1.629228 -1.067893 0.000000 0.000000 0.000000 15.803724 2.037304 -0.415753 5.297156 -14.209103 -0.575176 -89.713859 1.126940 -11.076075 10.174604 -45.181937 7.610841 0.000000 0.000000 0.000000 17.427431 2.745429 0.017254 8.978616 25.740135 -2.079430 -44.316245 4.698844 29.162353 -85.062254 37.998344 69.881544 0.000000 0.000000 0.000000 
-3.449414 125.930771 321.541809 0.000000 0.000000 0.000000 7.076432 -37.843821 15.825017 -84.793329 -14.200680 14.037117 85.826094 18.763851 6.876625 -1.456180 3.877527 14.047800 0.000000 0.000000 0.000000 5.559077 -39.011462 14.949192 -98.543189 -20.940062 -10.193917 69.456959 11.354460 12.769238 45.259135 10.740379 3.993330 0.000000 0.000000 0.000000 7.180131 -40.254560 16.950827 -1.498413 3.894724 -0.583617 35.012089 2.182942 -24.461860 14.612736 3.725420 -0.903800 0.000000 0.000000 0.000000 15.355997 2.523661 -0.383810 -3.887763 1.752047 -1.450049 0.000000 0.000000 0.000000 15.956003 1.831398 -0.466920 5.352861 -15.356775 -1.866808 -86.912286 -0.079416 -6.108333 4.102660 -50.060413 1.637941 0.000000 0.000000 0.000000 17.706512 2.702547 0.115432 8.633152 26.074776 -0.478741 -35.454546 0.195318 29.111950 -88.205247 39.392546 74.754078 0.000000 0.000000 0.000000 
-2.584286 122.257782 331.225769 0.000000 0.000000 0.000000 10.859394 -36.981936 18.715524 -78.574619 -10.573345 17.144984 74.984474 16.657307 8.010237 0.557478 2.374249 9.873151 0.000000 0.000000 0.000000 8.492120 -37.804960 17.711481 -87.459855 -19.834413 -7.919740 47.596549 5.244032 13.554313 37.503698 8.206803 6.684478 0.000000 0.000000 0.000000 10.233933 -38.978974 19.782122 -1.777372 3.345827 -0.335468 32.839307 2.668982 -23.707515 14.027899 3.506910 -0.850284 0.000000 0.000000 0.000000 15.494914 2.164322 -0.245361 -3.419589 1.881443 -1.885930 0.000000 0.000000 0.000000 15.683936 1.484463 -0.387161 5.241742 -15.726640 -2.899198 -82.858473 -0.496622 -0.732498 -2.886957 -55.251562 -5.515306 0.000000 0.000000 0.000000 17.433035 2.409120 0.315305 8.268101 25.566855 0.829622 -26.516859 -4.391655 29.602798 -89.627382 40.919376 78.177034 0.000000 0.000000 0.000000 
-1.657195 117.179962 341.926086 0.000000 0.000000 0.000000 13.948963 -37.373525 21.529613 -72.858318 -6.135502 20.126165 63.869488 14.673169 8.398227 1.748669 0.614013 4.762410 0.000000 0.000000 0.000000 10.968689 -37.324778 20.186861 -73.147740 -16.932041 -6.517969 29.154908 0.979170 11.950358 30.039503 6.750344 8.727813 0.000000 0.000000 0.000000 12.119918 -37.943053 21.864965 -2.555538 3.772045 0.000058 30.399379 3.252808 -22.186116 13.039564 3.015822 -0.629499 0.000000 0.000000 0.000000 15.197548 1.589537 0.043171 -2.659775 1.990874 -2.329667 0.000000 0.000000 0.000000 14.835582 0.980215 -0.161449 5.016485 -15.206030 -3.233840 -78.695015 0.319296 4.335204 -10.052733 -58.232991 -13.063803 0.000000 0.000000 0.000000 16.360473 1.758021 0.620419 7.715096 24.410707 2.346646 -17.696460 -8.655433 31.237652 -90.647286 42.794226 81.353277 0.000000 0.000000 0.000000 
-1.087218 111.189240 352.961670 0.000000 0.000000 0.000000 16.098302 -38.724420 23.273863 -68.168942 -2.547915 22.074176 53.416331 13.537389 8.447393 1.467315 -0.423706 0.365849 0.000000 0.000000 0.000000 12.988209 -37.893347 21.358615 -57.784247 -13.024084 -6.732739 17.229362 -0.112589 9.585945 23.859266 6.880452 10.522563 0.000000 0.000000 0.000000 13.080272 -37.549986 22.539204 -3.975632 3.866266 -0.298663 28.244473 3.966269 -19.536938 11.594837 2.331633 -0.355362 0.000000 0.000000 0.000000 14.279199 0.833674 0.387667 -1.818332 2.059920 -2.725708 0.000000 0.000000 0.000000 13.377517 0.348866 0.086478 4.666635 -13.925171 -2.779207 -75.128611 2.574389 8.334581 -15.507777 -58.943235 -19.042946 0.000000 0.000000 0.000000 14.415297 0.810026 0.921183 6.863186 22.819462 4.379727 -8.566790 -12.687246 34.284650 -93.202029 45.056760 86.201618 0.000000 0.000000 0.000000 
-0.842906 104.950745 364.252808 0.000000 0.000000 0.000000 16.619177 -40.003595 22.775988 -64.834177 -0.620283 23.081004 44.537382 13.261164 8.550533 0.596315 -0.381503 -2.959264 0.000000 0.000000 0.000000 14.028759 -39.196116 20.663393 -43.802635 -8.691727 -7.582251 12.618179 1.248644 7.571316 16.542875 7.895192 12.015101 0.000000 0.000000 0.000000 13.024466 -37.483716 21.283747 -4.205699 3.408059 -0.710717 26.620536 4.861626 -15.814994 9.640840 1.631480 -0.122963 0.000000 0.000000 0.000000 12.567739 0.054344 0.652681 -1.119058 2.059594 -3.002867 0.000000 0.000000 0.000000 11.323462 -0.337248 0.227324 4.211308 -12.422595 -1.855783 -72.319190 6.338568 10.754141 -19.200990 -60.208336 -23.407231 0.000000 0.000000 0.000000 11.725531 -0.247000 1.046489 5.745634 20.947591 6.659467 0.913469 -16.720564 38.013886 -98.902109 47.453105 94.295884 0.000000 0.000000 0.000000 
-0.837141 99.138702 375.908875 0.000000 0.000000 0.000000 15.168388 -40.197832 19.610728 -62.654159 0.114366 24.008240 38.405648 13.443445 8.517760 0.095458 0.080933 -5.397726 0.000000 0.000000 0.000000 13.507386 -39.661126 17.851924 -32.180228 -4.302487 -7.802068 13.947548 3.085012 5.847540 5.329263 8.115751 13.422310 0.000000 0.000000 0.000000 12.124580 -37.140427 18.070266 -3.845158 3.089429 -1.610995 25.788281 5.921525 -11.614951 7.257727 1.079325 0.027456 0.000000 0.000000 0.000000 10.091532 -0.559677 0.770663 -0.741892 1.965221 -3.127695 0.000000 0.000000 0.000000 8.737872 -0.881399 0.223816 3.672059 -11.121136 -0.828741 -69.810687 11.563614 10.890270 -23.132058 -64.567786 -28.218384 0.000000 0.000000 0.000000 8.544900 -1.156710 0.897439 4.419278 18.652483 8.701822 9.850744 -21.140807 41.717624 -106.603762 49.337001 104.318750 0.000000 0.000000 0.000000 
